<svg width="200" height="60" viewBox="0 0 200 60" fill="none" xmlns="http://www.w3.org/2000/svg">
<path d="M0 5.7037C0 2.94228 2.23858 0.703705 5 0.703705H195C197.761 0.703705 200 2.94228 200 5.7037V54.963C200 57.7244 197.761 59.963 195 59.963H5C2.23857 59.963 0 57.7244 0 54.963V5.7037Z" fill="black"/>
<path d="M100.942 32.9276C97.4578 32.9276 94.6178 35.5779 94.6178 39.2283C94.6178 42.8565 97.4578 45.529 100.942 45.529C104.428 45.529 107.268 42.8565 107.268 39.2283C107.267 35.5779 104.427 32.9276 100.942 32.9276ZM100.942 43.049C99.0326 43.049 97.3867 41.4742 97.3867 39.2298C97.3867 36.9616 99.0341 35.4105 100.942 35.4105C102.852 35.4105 104.498 36.9616 104.498 39.2298C104.498 41.4728 102.852 43.049 100.942 43.049ZM87.1437 32.9276C83.6592 32.9276 80.8192 35.5779 80.8192 39.2283C80.8192 42.8565 83.6592 45.529 87.1437 45.529C90.6296 45.529 93.4696 42.8565 93.4696 39.2283C93.4696 35.5779 90.6296 32.9276 87.1437 32.9276ZM87.1437 43.049C85.2341 43.049 83.5881 41.4742 83.5881 39.2298C83.5881 36.9616 85.2355 35.4105 87.1437 35.4105C89.0533 35.4105 90.6992 36.9616 90.6992 39.2298C90.7007 41.4728 89.0533 43.049 87.1437 43.049ZM70.7318 34.8624V37.535H77.1289C76.9378 39.0387 76.437 40.1365 75.6726 40.8994C74.7422 41.8298 73.2859 42.8565 70.7318 42.8565C66.7941 42.8565 63.7155 39.6816 63.7155 35.7439C63.7155 31.8061 66.7941 28.6313 70.7318 28.6313C72.8563 28.6313 74.4074 29.4668 75.5526 30.5409L77.4385 28.655C75.8385 27.1276 73.7155 25.9587 70.7318 25.9587C65.3378 25.9587 60.8029 30.3498 60.8029 35.7439C60.8029 41.1379 65.3378 45.529 70.7318 45.529C73.6429 45.529 75.84 44.5735 77.557 42.7839C79.323 41.0179 79.8726 38.535 79.8726 36.5305C79.8726 35.9113 79.8252 35.3379 79.7289 34.8609H70.7318V34.8624ZM137.855 36.9379C137.33 35.5305 135.73 32.9276 132.461 32.9276C129.215 32.9276 126.517 35.4816 126.517 39.2283C126.517 42.7602 129.191 45.529 132.77 45.529C135.658 45.529 137.329 43.7631 138.022 42.7365L135.874 41.3039C135.159 42.3542 134.179 43.0461 132.77 43.0461C131.363 43.0461 130.36 42.4016 129.716 41.1365L138.141 37.652L137.855 36.9379ZM129.262 39.0387C129.191 36.6031 131.148 35.3631 132.557 35.3631C133.655 35.3631 134.585 35.9128 134.896 36.6994L129.262 39.0387ZM122.413 45.1483H125.181V26.6283H122.413V45.1483ZM117.877 34.3365H117.782C117.161 33.5957 115.967 32.9276 114.465 32.9276C111.314 32.9276 108.427 35.6965 108.427 39.2535C108.427 42.7853 111.314 45.5305 114.465 45.5305C115.969 45.5305 117.161 44.8624 117.782 44.0994H117.877V45.0061C117.877 47.4165 116.588 48.7053 114.513 48.7053C112.818 48.7053 111.767 47.489 111.338 46.4624L108.927 47.4653C109.619 49.135 111.456 51.1883 114.513 51.1883C117.759 51.1883 120.504 49.2787 120.504 44.6239V33.3113H117.879V34.3365H117.877ZM114.704 43.049C112.794 43.049 111.196 41.449 111.196 39.2535C111.196 37.0328 112.794 35.4105 114.704 35.4105C116.588 35.4105 118.068 37.0328 118.068 39.2535C118.068 41.449 116.588 43.049 114.704 43.049ZM150.824 26.6283H144.2V45.1483H146.963V38.132H150.822C153.886 38.132 156.899 35.9142 156.899 32.3809C156.899 28.8476 153.887 26.6283 150.824 26.6283ZM150.895 35.5542H146.963V29.2061H150.895C152.961 29.2061 154.135 30.9172 154.135 32.3809C154.135 33.815 152.961 35.5542 150.895 35.5542ZM167.979 32.895C165.978 32.895 163.905 33.7765 163.047 35.7305L165.501 36.7542C166.025 35.7305 167.003 35.3957 168.027 35.3957C169.456 35.3957 170.91 36.2535 170.933 37.7779V37.969C170.433 37.6831 169.36 37.255 168.05 37.255C165.406 37.255 162.713 38.7083 162.713 41.4239C162.713 43.9024 164.881 45.4979 167.311 45.4979C169.169 45.4979 170.194 44.6639 170.837 43.6861H170.932V45.1157H173.601V38.015C173.603 34.729 171.147 32.895 167.979 32.895ZM167.644 43.0446C166.741 43.0446 165.477 42.5913 165.477 41.4713C165.477 40.0416 167.05 39.4935 168.409 39.4935C169.622 39.4935 170.196 39.7557 170.933 40.1128C170.719 41.8298 169.241 43.0446 167.644 43.0446ZM183.323 33.2994L180.154 41.329H180.059L176.77 33.2994H173.793L178.724 44.5216L175.913 50.7646H178.796L186.397 33.2994H183.323ZM158.425 45.1483H161.188V26.6283H158.425V45.1483Z" fill="white"/>
<path d="M70.249 15.8784C70.249 17.1199 69.8816 18.1081 69.1453 18.8458C68.3097 19.7229 67.2193 20.1614 65.8801 20.1614C64.5971 20.1614 63.5053 19.7169 62.609 18.8281C61.7112 17.9377 61.2623 16.8355 61.2623 15.5199C61.2623 14.2029 61.7112 13.1007 62.609 12.2118C63.5053 11.3214 64.5971 10.8769 65.8801 10.8769C66.5171 10.8769 67.126 11.0014 67.7038 11.2488C68.283 11.4977 68.7467 11.8281 69.0934 12.2414L68.3127 13.0236C67.7245 12.3199 66.9141 11.9688 65.8786 11.9688C64.9423 11.9688 64.1334 12.2977 63.4504 12.9555C62.7675 13.6132 62.4267 14.4681 62.4267 15.5184C62.4267 16.5688 62.7675 17.4236 63.4504 18.0814C64.1334 18.7392 64.9423 19.0681 65.8786 19.0681C66.8712 19.0681 67.6993 18.7377 68.3616 18.0755C68.7912 17.6444 69.0401 17.0444 69.1067 16.2755H65.8786V15.2073H70.1853C70.2297 15.4399 70.249 15.6636 70.249 15.8784Z" fill="white"/>
<path d="M77.0787 12.1659H73.0313V14.9837H76.6817V16.0518H73.0313V18.8696H77.0787V19.963H71.8891V11.0741H77.0787V12.1659Z" fill="white"/>
<path d="M81.8949 19.963H80.7526V12.1659H78.2697V11.0741H84.3778V12.1659H81.8949V19.963Z" fill="white"/>
<path d="M88.797 19.963V11.0741H89.9392V19.963H88.797Z" fill="white"/>
<path d="M95.0047 19.963H93.8625V12.1659H91.3795V11.0741H97.4876V12.1659H95.0047V19.963Z" fill="white"/>
<path d="M109.05 18.8148C108.176 19.7126 107.09 20.1615 105.791 20.1615C104.492 20.1615 103.406 19.7126 102.533 18.8148C101.659 17.917 101.224 16.8178 101.224 15.5185C101.224 14.2192 101.659 13.12 102.533 12.2222C103.406 11.3244 104.492 10.8741 105.791 10.8741C107.083 10.8741 108.167 11.3259 109.044 12.2281C109.921 13.1303 110.36 14.2266 110.36 15.5185C110.36 16.8178 109.923 17.917 109.05 18.8148ZM103.376 18.0696C104.034 18.7363 104.838 19.0681 105.791 19.0681C106.744 19.0681 107.55 18.7348 108.206 18.0696C108.864 17.4029 109.194 16.5526 109.194 15.5185C109.194 14.4844 108.864 13.6341 108.206 12.9674C107.55 12.3007 106.744 11.9689 105.791 11.9689C104.838 11.9689 104.034 12.3022 103.376 12.9674C102.72 13.6341 102.39 14.4844 102.39 15.5185C102.39 16.5526 102.72 17.4029 103.376 18.0696Z" fill="white"/>
<path d="M111.963 19.963V11.0741H113.353L117.673 17.9881H117.721L117.673 16.2755V11.0741H118.815V19.963H117.622L113.102 12.7126H113.053L113.102 14.4252V19.963H111.963Z" fill="white"/>
<path d="M70.249 15.8784C70.249 17.1199 69.8816 18.1081 69.1453 18.8458C68.3097 19.7229 67.2193 20.1614 65.8801 20.1614C64.5971 20.1614 63.5053 19.7169 62.609 18.8281C61.7112 17.9377 61.2623 16.8355 61.2623 15.5199C61.2623 14.2029 61.7112 13.1007 62.609 12.2118C63.5053 11.3214 64.5971 10.8769 65.8801 10.8769C66.5171 10.8769 67.126 11.0014 67.7038 11.2488C68.283 11.4977 68.7467 11.8281 69.0934 12.2414L68.3127 13.0236C67.7245 12.3199 66.9141 11.9688 65.8786 11.9688C64.9423 11.9688 64.1334 12.2977 63.4504 12.9555C62.7675 13.6132 62.4267 14.4681 62.4267 15.5184C62.4267 16.5688 62.7675 17.4236 63.4504 18.0814C64.1334 18.7392 64.9423 19.0681 65.8786 19.0681C66.8712 19.0681 67.6993 18.7377 68.3616 18.0755C68.7912 17.6444 69.0401 17.0444 69.1067 16.2755H65.8786V15.2073H70.1853C70.2297 15.4399 70.249 15.6636 70.249 15.8784Z" stroke="white" stroke-width="0.2" stroke-miterlimit="10"/>
<path d="M77.0787 12.1659H73.0313V14.9837H76.6817V16.0518H73.0313V18.8696H77.0787V19.963H71.8891V11.0741H77.0787V12.1659Z" stroke="white" stroke-width="0.2" stroke-miterlimit="10"/>
<path d="M81.8949 19.963H80.7526V12.1659H78.2697V11.0741H84.3778V12.1659H81.8949V19.963Z" stroke="white" stroke-width="0.2" stroke-miterlimit="10"/>
<path d="M88.797 19.963V11.0741H89.9392V19.963H88.797Z" stroke="white" stroke-width="0.2" stroke-miterlimit="10"/>
<path d="M95.0047 19.963H93.8625V12.1659H91.3795V11.0741H97.4876V12.1659H95.0047V19.963Z" stroke="white" stroke-width="0.2" stroke-miterlimit="10"/>
<path d="M109.05 18.8148C108.176 19.7126 107.09 20.1615 105.791 20.1615C104.492 20.1615 103.406 19.7126 102.533 18.8148C101.659 17.917 101.224 16.8178 101.224 15.5185C101.224 14.2192 101.659 13.12 102.533 12.2222C103.406 11.3244 104.492 10.8741 105.791 10.8741C107.083 10.8741 108.167 11.3259 109.044 12.2281C109.921 13.1303 110.36 14.2266 110.36 15.5185C110.36 16.8178 109.923 17.917 109.05 18.8148ZM103.376 18.0696C104.034 18.7363 104.838 19.0681 105.791 19.0681C106.744 19.0681 107.55 18.7348 108.206 18.0696C108.864 17.4029 109.194 16.5526 109.194 15.5185C109.194 14.4844 108.864 13.6341 108.206 12.9674C107.55 12.3007 106.744 11.9689 105.791 11.9689C104.838 11.9689 104.034 12.3022 103.376 12.9674C102.72 13.6341 102.39 14.4844 102.39 15.5185C102.39 16.5526 102.72 17.4029 103.376 18.0696Z" stroke="white" stroke-width="0.2" stroke-miterlimit="10"/>
<path d="M111.963 19.963V11.0741H113.353L117.673 17.9881H117.721L117.673 16.2755V11.0741H118.815V19.963H117.622L113.102 12.7126H113.053L113.102 14.4252V19.963H111.963Z" stroke="white" stroke-width="0.2" stroke-miterlimit="10"/>
<g filter="url(#filter0_ii_32_166)">
<path d="M15.4607 11.8711C15.0296 12.3274 14.7748 13.0356 14.7748 13.9526V46.717C14.7748 47.6356 15.0296 48.3422 15.4607 48.7985L15.5704 48.9052L33.9244 30.5511V30.3348V30.1185L15.5704 11.763L15.4607 11.8711Z" fill="url(#paint0_linear_32_166)"/>
<path d="M40.0415 36.6711L33.9244 30.5511V30.3348V30.1185L40.043 24L40.1807 24.0785L47.4296 28.197C49.4993 29.3733 49.4993 31.2978 47.4296 32.4756L40.1807 36.5941L40.0415 36.6711Z" fill="url(#paint1_linear_32_166)"/>
<g filter="url(#filter1_i_32_166)">
<path d="M40.1807 36.5926L33.923 30.3348L15.4607 48.7985C16.1422 49.5215 17.2696 49.6104 18.5393 48.8904L40.1807 36.5926Z" fill="url(#paint2_linear_32_166)"/>
</g>
<path d="M40.1807 24.0771L18.5393 11.7808C17.2696 11.0593 16.1422 11.1496 15.4607 11.8726L33.9244 30.3363L40.1807 24.0771Z" fill="url(#paint3_linear_32_166)"/>
</g>
<path d="M5 1.7037H195V-0.296295H5V1.7037ZM199 5.7037V54.963H201V5.7037H199ZM195 58.963H5V60.963H195V58.963ZM1 54.963V5.7037H-1V54.963H1ZM5 58.963C2.79086 58.963 1 57.1721 1 54.963H-1C-1 58.2767 1.68629 60.963 5 60.963V58.963ZM199 54.963C199 57.1721 197.209 58.963 195 58.963V60.963C198.314 60.963 201 58.2767 201 54.963H199ZM195 1.7037C197.209 1.7037 199 3.49456 199 5.7037H201C201 2.39 198.314 -0.296295 195 -0.296295V1.7037ZM5 -0.296295C1.68629 -0.296295 -1 2.38999 -1 5.7037H1C1 3.49456 2.79086 1.7037 5 1.7037V-0.296295Z" fill="#A6A6A6"/>
<defs>
<filter id="filter0_ii_32_166" x="14.7748" y="11.2829" width="34.207" height="38.1048" filterUnits="userSpaceOnUse" color-interpolation-filters="sRGB">
<feFlood flood-opacity="0" result="BackgroundImageFix"/>
<feBlend mode="normal" in="SourceGraphic" in2="BackgroundImageFix" result="shape"/>
<feColorMatrix in="SourceAlpha" type="matrix" values="0 0 0 0 0 0 0 0 0 0 0 0 0 0 0 0 0 0 127 0" result="hardAlpha"/>
<feOffset dy="-0.15"/>
<feComposite in2="hardAlpha" operator="arithmetic" k2="-1" k3="1"/>
<feColorMatrix type="matrix" values="0 0 0 0 0 0 0 0 0 0 0 0 0 0 0 0 0 0 0.12 0"/>
<feBlend mode="normal" in2="shape" result="effect1_innerShadow_32_166"/>
<feColorMatrix in="SourceAlpha" type="matrix" values="0 0 0 0 0 0 0 0 0 0 0 0 0 0 0 0 0 0 127 0" result="hardAlpha"/>
<feOffset dy="0.15"/>
<feComposite in2="hardAlpha" operator="arithmetic" k2="-1" k3="1"/>
<feColorMatrix type="matrix" values="0 0 0 0 1 0 0 0 0 1 0 0 0 0 1 0 0 0 0.25 0"/>
<feBlend mode="normal" in2="effect1_innerShadow_32_166" result="effect2_innerShadow_32_166"/>
</filter>
<filter id="filter1_i_32_166" x="15.4607" y="30.3348" width="24.72" height="19.0529" filterUnits="userSpaceOnUse" color-interpolation-filters="sRGB">
<feFlood flood-opacity="0" result="BackgroundImageFix"/>
<feBlend mode="normal" in="SourceGraphic" in2="BackgroundImageFix" result="shape"/>
<feColorMatrix in="SourceAlpha" type="matrix" values="0 0 0 0 0 0 0 0 0 0 0 0 0 0 0 0 0 0 127 0" result="hardAlpha"/>
<feOffset dy="-0.15"/>
<feComposite in2="hardAlpha" operator="arithmetic" k2="-1" k3="1"/>
<feColorMatrix type="matrix" values="0 0 0 0 0 0 0 0 0 0 0 0 0 0 0 0 0 0 0.08 0"/>
<feBlend mode="normal" in2="shape" result="effect1_innerShadow_32_166"/>
</filter>
<linearGradient id="paint0_linear_32_166" x1="32.2975" y1="13.6059" x2="7.43526" y2="38.4682" gradientUnits="userSpaceOnUse">
<stop stop-color="#00A0FF"/>
<stop offset="0.0066" stop-color="#00A1FF"/>
<stop offset="0.2601" stop-color="#00BEFF"/>
<stop offset="0.5122" stop-color="#00D2FF"/>
<stop offset="0.7604" stop-color="#00DFFF"/>
<stop offset="1" stop-color="#00E3FF"/>
</linearGradient>
<linearGradient id="paint1_linear_32_166" x1="50.1237" y1="30.3348" x2="14.2779" y2="30.3348" gradientUnits="userSpaceOnUse">
<stop stop-color="#FFE000"/>
<stop offset="0.4087" stop-color="#FFBD00"/>
<stop offset="0.7754" stop-color="#FFA500"/>
<stop offset="1" stop-color="#FF9C00"/>
</linearGradient>
<linearGradient id="paint2_linear_32_166" x1="36.7824" y1="33.7332" x2="3.06608" y2="67.4495" gradientUnits="userSpaceOnUse">
<stop stop-color="#FF3A44"/>
<stop offset="1" stop-color="#C31162"/>
</linearGradient>
<linearGradient id="paint3_linear_32_166" x1="10.811" y1="0.965648" x2="25.8662" y2="16.0209" gradientUnits="userSpaceOnUse">
<stop stop-color="#32A071"/>
<stop offset="0.0685" stop-color="#2DA771"/>
<stop offset="0.4762" stop-color="#15CF74"/>
<stop offset="0.8009" stop-color="#06E775"/>
<stop offset="1" stop-color="#00F076"/>
</linearGradient>
</defs>
</svg>
