<svg width="200" height="67" viewBox="0 0 200 67" fill="none" xmlns="http://www.w3.org/2000/svg">
<path d="M0 10.5C0 7.23841 0 5.60761 0.532843 4.32122C1.2433 2.60602 2.60602 1.2433 4.32122 0.532843C5.60761 0 7.23841 0 10.5 0H189.5C192.762 0 194.392 0 195.679 0.532843C197.394 1.2433 198.757 2.60602 199.467 4.32122C200 5.60761 200 7.23841 200 10.5V56.1667C200 59.4283 200 61.0591 199.467 62.3454C198.757 64.0606 197.394 65.4234 195.679 66.1338C194.392 66.6667 192.762 66.6667 189.5 66.6667H10.5C7.23841 66.6667 5.60761 66.6667 4.32122 66.1338C2.60602 65.4234 1.2433 64.0606 0.532843 62.3454C0 61.0591 0 59.4283 0 56.1667V10.5Z" fill="#0C0D10"/>
<path d="M135.876 32.0015V35.8199H133.483V38.324H135.876V46.8323C135.876 49.7375 137.191 50.8997 140.497 50.8997C141.078 50.8997 141.632 50.8305 142.116 50.7475V48.2711C141.701 48.3126 141.438 48.3403 140.981 48.3403C139.501 48.3403 138.851 47.6485 138.851 46.0714V38.324H142.116V35.8199H138.851V32.0015H135.876Z" fill="white"/>
<path d="M150.539 51.1072C154.938 51.1072 157.636 48.1604 157.636 43.2768C157.636 38.4208 154.925 35.4602 150.539 35.4602C146.14 35.4602 143.428 38.4208 143.428 43.2768C143.428 48.1604 146.126 51.1072 150.539 51.1072ZM150.539 48.4648C147.952 48.4648 146.499 46.5694 146.499 43.2768C146.499 40.0118 147.952 38.1026 150.539 38.1026C153.112 38.1026 154.579 40.0118 154.579 43.2768C154.579 46.5556 153.112 48.4648 150.539 48.4648Z" fill="white"/>
<path d="M159.944 50.8166H162.919V41.921C162.919 39.8043 164.51 38.3793 166.765 38.3793C167.291 38.3793 168.176 38.4762 168.425 38.5592V35.6262C168.107 35.5432 167.54 35.5017 167.097 35.5017C165.132 35.5017 163.458 36.5808 163.029 38.0611H162.808V35.7507H159.944V50.8166Z" fill="white"/>
<path d="M175.81 37.9919C178.01 37.9919 179.449 39.5276 179.518 41.8933H171.909C172.075 39.5414 173.611 37.9919 175.81 37.9919ZM179.504 46.7493C178.951 47.9252 177.72 48.5754 175.921 48.5754C173.542 48.5754 172.006 46.9014 171.909 44.259V44.093H182.548V43.0554C182.548 38.324 180.016 35.4602 175.824 35.4602C171.577 35.4602 168.879 38.5177 168.879 43.3321C168.879 48.1466 171.522 51.1072 175.838 51.1072C179.283 51.1072 181.69 49.447 182.368 46.7493H179.504Z" fill="white"/>
<path d="M116.37 45.253C116.6 48.9526 119.683 51.3185 124.271 51.3185C129.175 51.3185 132.244 48.8378 132.244 44.8802C132.244 41.7686 130.495 40.0479 126.25 39.0585L123.97 38.4993C121.274 37.8684 120.185 37.0223 120.185 35.5454C120.185 33.6813 121.877 32.4625 124.415 32.4625C126.824 32.4625 128.487 33.6526 128.788 35.5597H131.914C131.728 32.0753 128.659 29.6233 124.458 29.6233C119.941 29.6233 116.93 32.0753 116.93 35.7605C116.93 38.8004 118.636 40.6071 122.379 41.4818L125.046 42.1271C127.784 42.7724 128.989 43.7187 128.989 45.2961C128.989 47.1315 127.096 48.465 124.515 48.465C121.748 48.465 119.826 47.2175 119.554 45.253H116.37Z" fill="white"/>
<path d="M85.5583 35.5017C83.5107 35.5017 81.7399 36.5255 80.8268 38.241H80.6055V35.7507H77.7417V55.8248H80.7161V48.5339H80.9513C81.7399 50.1249 83.4416 51.0657 85.5859 51.0657C89.3905 51.0657 91.8115 48.0636 91.8115 43.2768C91.8115 38.49 89.3905 35.5017 85.5583 35.5017ZM84.7144 48.3956C82.2241 48.3956 80.6608 46.4311 80.6608 43.2906C80.6608 40.1363 82.2241 38.1718 84.7282 38.1718C87.2461 38.1718 88.7541 40.0948 88.7541 43.2768C88.7541 46.4726 87.2461 48.3956 84.7144 48.3956Z" fill="white"/>
<path d="M102.22 35.5017C100.172 35.5017 98.4012 36.5255 97.4882 38.241H97.2668V35.7507H94.403V55.8248H97.3775V48.5339H97.6127C98.4012 50.1249 100.103 51.0657 102.247 51.0657C106.052 51.0657 108.473 48.0636 108.473 43.2768C108.473 38.49 106.052 35.5017 102.22 35.5017ZM101.376 48.3956C98.8855 48.3956 97.3221 46.4311 97.3221 43.2906C97.3221 40.1363 98.8855 38.1718 101.39 38.1718C103.907 38.1718 105.415 40.0948 105.415 43.2768C105.415 46.4726 103.907 48.3956 101.376 48.3956Z" fill="white"/>
<path d="M72.405 50.8166H75.8178L68.347 30.1252H64.8913L57.4206 50.8166H60.7186L62.6257 45.3247H70.5123L72.405 50.8166ZM66.4543 33.8821H66.698L69.6949 42.629H63.443L66.4543 33.8821Z" fill="white"/>
<path d="M59.4185 14.5182V24.4999H63.0225C65.9969 24.4999 67.7193 22.6668 67.7193 19.4779C67.7193 16.3375 65.9831 14.5182 63.0225 14.5182H59.4185ZM60.968 15.9294H62.8495C64.9178 15.9294 66.1422 17.2437 66.1422 19.4987C66.1422 21.7883 64.9386 23.0888 62.8495 23.0888H60.968V15.9294Z" fill="white"/>
<path d="M72.9945 24.6452C75.1942 24.6452 76.5431 23.1718 76.5431 20.73C76.5431 18.302 75.1873 16.8217 72.9945 16.8217C70.7948 16.8217 69.439 18.302 69.439 20.73C69.439 23.1718 70.7878 24.6452 72.9945 24.6452ZM72.9945 23.324C71.7009 23.324 70.9746 22.3763 70.9746 20.73C70.9746 19.0975 71.7009 18.1429 72.9945 18.1429C74.2811 18.1429 75.0143 19.0975 75.0143 20.73C75.0143 22.3694 74.2811 23.324 72.9945 23.324Z" fill="white"/>
<path d="M88.0299 16.967H86.5427L85.2008 22.7152H85.0832L83.5337 16.967H82.1087L80.5592 22.7152H80.4486L79.0997 16.967H77.5917L79.6669 24.4999H81.1956L82.7451 18.9522H82.8627L84.4191 24.4999H85.9617L88.0299 16.967Z" fill="white"/>
<path d="M89.7427 24.4999H91.2299V20.0936C91.2299 18.9176 91.9285 18.1844 93.0284 18.1844C94.1283 18.1844 94.654 18.7862 94.654 19.9967V24.4999H96.1412V19.6232C96.1412 17.8316 95.2143 16.8217 93.5334 16.8217C92.3989 16.8217 91.6519 17.3267 91.2852 18.1637H91.1746V16.967H89.7427V24.4999Z" fill="white"/>
<path d="M98.4834 24.4999H99.9706V14.0271H98.4834V24.4999Z" fill="white"/>
<path d="M105.564 24.6452C107.764 24.6452 109.113 23.1718 109.113 20.73C109.113 18.302 107.757 16.8217 105.564 16.8217C103.364 16.8217 102.008 18.302 102.008 20.73C102.008 23.1718 103.357 24.6452 105.564 24.6452ZM105.564 23.324C104.27 23.324 103.544 22.3763 103.544 20.73C103.544 19.0975 104.27 18.1429 105.564 18.1429C106.851 18.1429 107.584 19.0975 107.584 20.73C107.584 22.3694 106.851 23.324 105.564 23.324Z" fill="white"/>
<path d="M113.544 23.3724C112.734 23.3724 112.146 22.9781 112.146 22.3002C112.146 21.6361 112.617 21.2834 113.654 21.2142L115.494 21.0966V21.7261C115.494 22.6599 114.664 23.3724 113.544 23.3724ZM113.163 24.6244C114.153 24.6244 114.976 24.1956 115.425 23.4416H115.543V24.4999H116.975V19.3534C116.975 17.7625 115.91 16.8217 114.021 16.8217C112.312 16.8217 111.095 17.6518 110.943 18.9453H112.382C112.548 18.4127 113.122 18.1083 113.952 18.1083C114.969 18.1083 115.494 18.5579 115.494 19.3534V20.0037L113.454 20.1213C111.662 20.2319 110.652 21.0136 110.652 22.3694C110.652 23.7459 111.711 24.6244 113.163 24.6244Z" fill="white"/>
<path d="M122.022 24.6244C123.059 24.6244 123.938 24.1333 124.387 23.3101H124.505V24.4999H125.93V14.0271H124.443V18.1637H124.332C123.924 17.3336 123.052 16.8424 122.022 16.8424C120.119 16.8424 118.895 18.3504 118.895 20.73C118.895 23.1165 120.106 24.6244 122.022 24.6244ZM122.444 18.1775C123.689 18.1775 124.47 19.1667 124.47 20.7369C124.47 22.314 123.696 23.2894 122.444 23.2894C121.185 23.2894 120.431 22.3279 120.431 20.73C120.431 19.1459 121.192 18.1775 122.444 18.1775Z" fill="white"/>
<path d="M135.574 24.6452C137.774 24.6452 139.123 23.1718 139.123 20.73C139.123 18.302 137.767 16.8217 135.574 16.8217C133.374 16.8217 132.019 18.302 132.019 20.73C132.019 23.1718 133.367 24.6452 135.574 24.6452ZM135.574 23.324C134.281 23.324 133.554 22.3763 133.554 20.73C133.554 19.0975 134.281 18.1429 135.574 18.1429C136.861 18.1429 137.594 19.0975 137.594 20.73C137.594 22.3694 136.861 23.324 135.574 23.324Z" fill="white"/>
<path d="M141.091 24.4999H142.579V20.0936C142.579 18.9176 143.277 18.1844 144.377 18.1844C145.477 18.1844 146.003 18.7862 146.003 19.9967V24.4999H147.49V19.6232C147.49 17.8316 146.563 16.8217 144.882 16.8217C143.748 16.8217 143 17.3267 142.634 18.1637H142.523V16.967H141.091V24.4999Z" fill="white"/>
<path d="M154.339 15.0924V17.0015H153.143V18.2536H154.339V22.5077C154.339 23.9604 154.996 24.5414 156.65 24.5414C156.94 24.5414 157.217 24.5068 157.459 24.4653V23.2271C157.252 23.2479 157.12 23.2617 156.892 23.2617C156.152 23.2617 155.827 22.9159 155.827 22.1273V18.2536H157.459V17.0015H155.827V15.0924H154.339Z" fill="white"/>
<path d="M159.455 24.4999H160.943V20.1005C160.943 18.9591 161.621 18.1913 162.838 18.1913C163.889 18.1913 164.45 18.8 164.45 20.0037V24.4999H165.937V19.637C165.937 17.8455 164.948 16.8286 163.343 16.8286C162.208 16.8286 161.413 17.3336 161.046 18.1775H160.929V14.0271H159.455V24.4999Z" fill="white"/>
<path d="M171.302 18.0876C172.402 18.0876 173.121 18.8554 173.156 20.0382H169.351C169.434 18.8623 170.202 18.0876 171.302 18.0876ZM173.149 22.4662C172.872 23.0542 172.257 23.3793 171.357 23.3793C170.168 23.3793 169.4 22.5423 169.351 21.2211V21.1381H174.671V20.6193C174.671 18.2536 173.405 16.8217 171.309 16.8217C169.185 16.8217 167.836 18.3504 167.836 20.7576C167.836 23.1649 169.158 24.6452 171.316 24.6452C173.038 24.6452 174.242 23.8151 174.581 22.4662H173.149Z" fill="white"/>
<path d="M41.2817 33.8347C41.3178 31.033 42.8224 28.382 45.2093 26.9146C43.7035 24.7641 41.1813 23.4006 38.5573 23.3185C35.7586 23.0247 33.0453 24.9932 31.6192 24.9932C30.1654 24.9932 27.9695 23.3476 25.605 23.3963C22.5229 23.4958 19.6496 25.2482 18.1501 27.9427C14.9268 33.5234 17.3311 41.7252 20.4188 46.2362C21.9636 48.4451 23.7691 50.9125 26.1315 50.825C28.4433 50.7291 29.3067 49.3509 32.0972 49.3509C34.8618 49.3509 35.6718 50.825 38.0822 50.7694C40.5628 50.7291 42.1257 48.5507 43.6164 46.3208C44.7263 44.7469 45.5804 43.0073 46.1471 41.1666C43.2318 39.9336 41.2851 36.9999 41.2817 33.8347Z" fill="white"/>
<path d="M36.7289 20.3518C38.0814 18.7281 38.7478 16.6411 38.5864 14.5341C36.52 14.7511 34.6113 15.7387 33.2404 17.3001C31.9 18.8257 31.2024 20.8759 31.3343 22.9024C33.4014 22.9237 35.4336 21.9629 36.7289 20.3518Z" fill="white"/>
<path d="M4.32122 66.1338L3.93853 67.0577L4.32122 66.1338ZM199.467 62.3454L198.543 61.9628L199.467 62.3454ZM195.679 66.1338L196.061 67.0577L195.679 66.1338ZM195.679 0.532843L195.296 1.45672L195.679 0.532843ZM199.467 4.32122L198.543 4.7039L199.467 4.32122ZM10.5 1H189.5V-1H10.5V1ZM199 10.5V56.1667H201V10.5H199ZM189.5 65.6667H10.5V67.6667H189.5V65.6667ZM1 56.1667V10.5H-1V56.1667H1ZM10.5 65.6667C8.85552 65.6667 7.67225 65.6661 6.73798 65.6024C5.8127 65.5392 5.20494 65.4175 4.7039 65.2099L3.93853 67.0577C4.72389 67.383 5.57473 67.5277 6.60184 67.5977C7.61997 67.6672 8.88289 67.6667 10.5 67.6667V65.6667ZM-1 56.1667C-1 57.7838 -1.00054 59.0467 -0.931075 60.0648C-0.860996 61.0919 -0.716341 61.9428 -0.391036 62.7281L1.45672 61.9628C1.24918 61.4617 1.12742 60.854 1.06429 59.9287C1.00054 58.9944 1 57.8111 1 56.1667H-1ZM4.7039 65.2099C3.23373 64.601 2.06569 63.4329 1.45672 61.9628L-0.391036 62.7281C0.420915 64.6884 1.97831 66.2458 3.93853 67.0577L4.7039 65.2099ZM199 56.1667C199 57.8111 198.999 58.9944 198.936 59.9287C198.873 60.854 198.751 61.4617 198.543 61.9628L200.391 62.7281C200.716 61.9428 200.861 61.0919 200.931 60.0648C201.001 59.0467 201 57.7838 201 56.1667H199ZM189.5 67.6667C191.117 67.6667 192.38 67.6672 193.398 67.5977C194.425 67.5277 195.276 67.383 196.061 67.0577L195.296 65.2099C194.795 65.4175 194.187 65.5392 193.262 65.6024C192.328 65.6661 191.144 65.6667 189.5 65.6667V67.6667ZM198.543 61.9628C197.934 63.4329 196.766 64.601 195.296 65.2099L196.061 67.0577C198.022 66.2458 199.579 64.6884 200.391 62.7281L198.543 61.9628ZM189.5 1C191.144 1 192.328 1.00054 193.262 1.06429C194.187 1.12742 194.795 1.24918 195.296 1.45672L196.061 -0.391036C195.276 -0.716341 194.425 -0.860996 193.398 -0.931075C192.38 -1.00054 191.117 -1 189.5 -1V1ZM201 10.5C201 8.88289 201.001 7.61997 200.931 6.60184C200.861 5.57473 200.716 4.72389 200.391 3.93853L198.543 4.7039C198.751 5.20494 198.873 5.8127 198.936 6.73798C198.999 7.67225 199 8.85552 199 10.5H201ZM195.296 1.45672C196.766 2.06569 197.934 3.23373 198.543 4.7039L200.391 3.93853C199.579 1.97831 198.022 0.420915 196.061 -0.391036L195.296 1.45672ZM10.5 -1C8.88289 -1 7.61997 -1.00054 6.60184 -0.931075C5.57473 -0.860996 4.72389 -0.716341 3.93853 -0.391036L4.7039 1.45672C5.20494 1.24918 5.8127 1.12742 6.73798 1.06429C7.67225 1.00054 8.85552 1 10.5 1V-1ZM1 10.5C1 8.85552 1.00054 7.67224 1.06429 6.73798C1.12742 5.8127 1.24918 5.20494 1.45672 4.7039L-0.391036 3.93853C-0.716341 4.72389 -0.860996 5.57473 -0.931075 6.60184C-1.00054 7.61997 -1 8.88288 -1 10.5H1ZM3.93853 -0.391036C1.97831 0.420915 0.420915 1.97831 -0.391036 3.93853L1.45672 4.7039C2.06569 3.23373 3.23373 2.06569 4.7039 1.45672L3.93853 -0.391036Z" fill="#A6A6A6"/>
</svg>
